<svg width="531" height="430" viewBox="0 0 531 430" fill="none" xmlns="http://www.w3.org/2000/svg">
<path d="M506.106 429.145C500.689 429.145 495.908 425.578 491.765 418.444C487.622 411.311 485.551 402.112 485.551 390.848C485.551 378.27 487.941 368.132 492.721 360.435C497.502 352.551 503.185 348.608 509.771 348.608C516.676 348.608 521.882 352.551 525.387 360.435C528.999 368.132 530.805 376.956 530.805 386.905C530.805 400.234 528.468 410.654 523.794 418.163C519.12 425.484 513.224 429.145 506.106 429.145Z" fill="#DB2A6B"/>
<path d="M228.294 403.238L304.143 4.49554H343.501L415.685 404.646L434.647 413.657V424.076H335.375V413.657L357.842 404.083L340.474 299.61H261.916L245.503 404.083L267.652 413.657V424.076H205.348V413.657L228.294 403.238ZM336.809 281.588L307.489 105.308L302.549 72.0791L296.813 105.308L265.422 281.588H336.809Z" fill="white"/>
<path d="M110.754 429.99C92.4821 429.99 76.4413 424.733 62.6313 414.22C48.9275 403.707 37.4546 388.971 28.2125 370.01C19.0767 350.861 12.2248 328.427 7.65687 302.708C3.08895 276.801 0.804993 248.641 0.804993 218.228C0.804993 184.812 3.35453 154.681 8.4536 127.835C13.6589 100.99 21.1482 78.0865 30.9214 59.1256C40.8009 39.9769 52.6987 25.3338 66.6149 15.1963C80.6374 5.05875 96.4658 -0.0100098 114.1 -0.0100098C125.254 -0.0100098 134.656 1.0225 142.304 3.08753C150.059 4.96487 156.858 7.21766 162.701 9.8459C168.543 12.2864 174.12 14.5392 179.432 16.6043C184.743 18.4816 190.533 19.4202 196.801 19.4202L189.949 133.186H159.514L151.546 48.4248C150.697 42.9806 148.944 37.818 146.288 32.9369C143.738 28.0559 139.755 24.1135 134.337 21.1098C128.919 17.9184 121.589 16.3227 112.347 16.3227C100.237 16.3227 90.1981 23.3626 82.2308 37.4425C74.3698 51.5224 68.474 72.9238 64.5434 101.647C60.6129 130.37 58.5945 166.884 58.4883 211.188C58.382 237.095 59.3381 262.158 61.3565 286.375C63.3749 310.592 66.668 332.369 71.236 351.706C75.8039 370.854 81.7528 386.061 89.0827 397.325C96.4126 408.589 105.389 414.22 116.012 414.22C121.855 414.22 127.22 412.812 132.106 409.997C136.993 406.993 141.189 402.675 144.695 397.043C148.306 391.411 151.068 384.747 152.98 377.05V248.641L122.067 243.009V226.958H214.329V243.009L199.35 248.641V401.549C194.039 401.549 189.258 402.581 185.009 404.646C180.866 406.523 176.67 408.87 172.421 411.686C168.171 414.502 163.338 417.318 157.92 420.134C152.502 422.95 146.022 425.297 138.48 427.174C130.938 429.051 121.696 429.99 110.754 429.99Z" fill="#DB2A6B"/>
</svg>
